#!OML:ASF H:\ManfredObstacles\Project 1\Capture day 2\Session 1\male.ASF
:FULLY-SPECIFIED
:DEGREES
195
root 1.97677 19.6441 5.6907 -162.892 -4.53386 -183.502
lowerback 1.78831 -0.644507 -3.19219
upperback 1.82383 -0.946404 -0.315694
thorax 0.91333 -0.530657 1.47311
lowerneck -27.6964 1.4891 0.44239
upperneck 44.0887 -4.28206 1.84919
head 24.515 -2.48123 -0.848324
rclavicle 1.71452e-014 1.68967e-015
rhumerus -30.2857 14.0968 -80.95
rradius 100.346
rwrist 8.75899
rhand -5.94072 -9.45809
rfingers 7.12502
rthumb 19.8893 -38.4603
lclavicle 1.71452e-014 1.68967e-015
lhumerus -18.9647 -30.6564 78.4669
lradius 85.8016
lwrist -23.7211
lhand -11.859 8.88967
lfingers 7.12502
lthumb 14.1929 38.3848
rfemur -17.7785 2.79993 21.9764
rtibia 51.005
rfoot 40.0933 -3.2301
rtoes -9.77238
lfemur -28.7357 -1.79668 -22.6537
ltibia 72.898
lfoot 29.0332 -3.31922
ltoes 7.67292
196
root 1.99096 19.8546 5.4477 -163.775 -4.23975 -183.565
lowerback 2.67895 -0.586895 -3.41332
upperback 2.2437 -0.92945 -0.349591
thorax 0.84784 -0.541204 1.57054
lowerneck -27.5691 1.5971 0.479791
upperneck 44.2286 -4.2417 1.85672
head 24.6026 -2.47849 -0.849382
rclavicle 1.79403e-014 9.54166e-015
rhumerus -30.7405 14.2297 -81.2655
rradius 98.8261
rwrist 8.70187
rhand -6.04377 -10.0202
rfingers 7.12502
rthumb 19.7903 -39.0327
lclavicle 1.79403e-014 9.54166e-015
lhumerus -19.5495 -30.8523 78.2784
lradius 84.7853
lwrist -23.3622
lhand -11.7601 9.46336
lfingers 7.12502
lthumb 14.2881 38.9518
rfemur -17.8977 2.32917 21.7033
rtibia 51.4184
rfoot 39.462 -3.5733
rtoes -10.9273
lfemur -29.0769 -0.810279 -23.0713
ltibia 74.5054
lfoot 29.0488 -2.50295
ltoes 8.12448
197
root 2.00444 20.0561 5.20506 -164.454 -3.88416 -183.66
lowerback 3.40583 -0.517368 -3.66847
upperback 2.59983 -0.897101 -0.408378
thorax 0.808672 -0.54518 1.65907
lowerneck -27.5447 1.71993 0.586465
upperneck 44.3791 -4.17587 1.80091
head 24.7393 -2.45725 -0.894723
rclavicle -2.78299e-015 3.97569e-016
rhumerus -31.1132 14.4436 -81.5802
rradius 97.0514
rwrist 8.70811
rhand -6.2964 -10.5223
rfingers 7.12502
rthumb 19.5474 -39.5597
lclavicle -2.78299e-015 3.97569e-016
lhumerus -20.1505 -31.0766 78.0666
lradius 83.6388
lwrist -23.1045
lhand -11.6632 9.89093
lfingers 7.12502
lthumb 14.3816 39.3727
rfemur -18.2193 1.90336 21.3672
rtibia 51.5456
rfoot 38.3394 -4.055
rtoes -12.3669
lfemur -29.6031 0.159636 -23.5087
ltibia 75.8446
lfoot 28.9398 -1.79662
ltoes 8.40879
198
root 2.01744 20.2473 4.96285 -164.875 -3.48208 -183.758
lowerback 3.90223 -0.442299 -3.93037
upperback 2.88304 -0.84876 -0.473233
thorax 0.822991 -0.54036 1.74172
lowerneck -27.5477 1.84154 0.675972
upperneck 44.5123 -4.08448 1.74138
head 24.8715 -2.42766 -0.930629
rclavicle 1.14798e-014 3.47873e-015
rhumerus -31.4038 14.7017 -81.867
rradius 95.0701
rwrist 8.79922
rhand -6.5909 -10.9204
rfingers 7.12502
rthumb 19.2642 -39.9862
lclavicle 1.14798e-014 3.47873e-015
lhumerus -20.7623 -31.3149 77.8597
lradius 82.3906
lwrist -22.9223
lhand -11.5429 10.1344
lfingers 7.12502
lthumb 14.4975 39.6079
rfemur -18.8151 1.54319 21.0178
rtibia 51.4321
rfoot 36.7875 -4.76807
rtoes -13.9937
lfemur -30.3959 1.0608 -23.9386
ltibia 76.943
lfoot 28.7765 -1.23024
ltoes 8.57474
199
root 2.03011 20.4262 4.72128 -165.059 -3.06718 -183.822
lowerback 4.19189 -0.368048 -4.16018
upperback 3.08588 -0.787828 -0.529242
thorax 0.869113 -0.525993 1.81269
lowerneck -27.4344 1.97186 0.721511
upperneck 44.6461 -3.989 1.72474
head 24.9597 -2.40567 -0.931127
rclavicle 6.01324e-015 1.07344e-014
rhumerus -31.6579 14.9608 -82.1137
rradius 92.9393
rwrist 9.00769
rhand -6.86972 -11.1822
rfingers 7.12502
rthumb 18.9961 -40.2746
lclavicle 6.01324e-015 1.07344e-014
lhumerus -21.4476 -31.5681 77.6871
lradius 81.1091
lwrist -22.7894
lhand -11.3864 10.158
lfingers 7.12502
lthumb 14.6482 39.6206
rfemur -19.6632 1.2642 20.7182
rtibia 51.1187
rfoot 34.7603 -5.73185
rtoes -16.3453
lfemur -31.4493 1.84306 -24.3244
ltibia 77.8129
lfoot 28.5986 -0.836993
ltoes 8.70113
200
root 2.04221 20.5918 4.47989 -165.055 -2.67373 -183.834
lowerback 4.30685 -0.30239 -4.33086
upperback 3.23176 -0.723057 -0.566837
thorax 0.95315 -0.506349 1.86745
lowerneck -27.3751 2.10097 0.769013
upperneck 44.7744 -3.87457 1.69052
head 25.0653 -2.37528 -0.936679
rclavicle 4.32357e-015 -9.44227e-015
rhumerus -31.8803 15.1992 -82.3091
rradius 90.7063
rwrist 9.29989
rhand -7.02122 -11.3054
rfingers 7.12502
rthumb 18.8504 -40.412
lclavicle 4.32357e-015 -9.44227e-015
lhumerus -22.1992 -31.8302 77.5585
lradius 79.8322
lwrist -22.6302
lhand -11.2084 9.97533
lfingers 7.12502
lthumb 14.8197 39.4254
rfemur -20.7102 1.04404 20.4993
rtibia 50.6365
rfoot 32.5187 -6.88517
rtoes -18.6388
lfemur -32.7047 2.45931 -24.6462
ltibia 78.4484
lfoot 28.4426 -0.612154
ltoes 8.80438
201
root 2.05351 20.7426 4.23839 -164.934 -2.32147 -183.792
lowerback 4.32616 -0.249246 -4.42771
upperback 3.33374 -0.663312 -0.585881
thorax 1.04472 -0.485535 1.89939
lowerneck -27.1863 2.22957 0.772418
upperneck 44.862 -3.74244 1.6968
head 25.0739 -2.34487 -0.90027
rclavicle -4.69629e-015 -7.47927e-015
rhumerus -32.1202 15.3932 -82.4623
rradius 88.4315
rwrist 9.66142
rhand -7.03614 -11.2564
rfingers 7.12502
rthumb 18.8361 -40.3644
lclavicle -4.69629e-015 -7.47927e-015
lhumerus -23.0476 -32.1075 77.4802
lradius 78.603
lwrist -22.4293
lhand -10.9973 9.64863
lfingers 7.12502
lthumb 15.0231 39.0836
rfemur -21.8774 0.867015 20.3664
rtibia 50.0118
rfoot 30.3338 -8.16646
rtoes -20.1067
lfemur -34.0659 2.89572 -24.8917
ltibia 78.8356
lfoot 28.3051 -0.546419
ltoes 8.95036
